. 
 
http://www.torrenting.com          :     Once & For all ;)


               www . Torrenting . Com 

(((((((((((((= Enjoy No RAR releases =))))))))))))))))))))


...................................NFO:....................................

.








































          
          
              
              
                    
                    
                    
                    

The.Hangover.Part-2.2011.BRRip.XviD.AC3-SiC

Poster:
[img]http://shayr.gs/8PBJC9.jpg[/img]

IMDB Link: 
http://www.imdb.com/title/tt1411697/

Description:
Two years after the bachelor party in Las Vegas, Phil, Stu, Alan, and Doug jet to Thailand for Stu's wedding. Stu's plan for a subdued pre-wedding brunch, however, goes seriously awry. 

General
Complete name                    : The.Hangover.Part-2.2011.BRRip.XviD.AC3-SiC.avi
Format                           : AVI
Format/Info                      : Audio Video Interleave
File size                        : 1.37 GiB
Duration                         : 1h 41mn
Overall bit rate                 : 1 922 Kbps

Video
ID                               : 0
Format                           : MPEG-4 Visual
Format profile                   : Advanced Simple@L5
Format settings, BVOP            : Yes
Format settings, QPel            : No
Format settings, GMC             : No warppoints
Format settings, Matrix          : Default (MPEG)
Muxing mode                      : Packed bitstream
Codec ID                         : XVID
Codec ID/Hint                    : XviD
Duration                         : 1h 41mn
Bit rate                         : 1 530 Kbps
Width                            : 720 pixels
Height                           : 304 pixels
Display aspect ratio             : 2.35:1
Frame rate                       : 23.976 fps
Color space                      : YUV
Chroma subsampling               : 4:2:0
Bit depth                        : 8 bits
Scan type                        : Progressive
Bits/(Pixel*Frame)               : 0.292
Stream size                      : 1.09 GiB (80%)
Writing library                  : XviD 64

Audio
ID                               : 1
Format                           : AC-3
Format/Info                      : Audio Coding 3
Mode extension                   : CM (complete main)
Codec ID                         : 2000
Duration                         : 1h 41mn
Bit rate mode                    : Constant
Bit rate                         : 384 Kbps
Channel(s)                       : 6 channels
Channel positions                : Front: L C R, Side: L R, LFE
Sampling rate                    : 48.0 KHz
Bit depth                        : 16 bits
Stream size                      : 280 MiB (20%)
Alignment                        : Aligned on interleaves
Interleave, duration             : 64 ms (1.53 video frames)
Interleave, preload duration     : 192 ms
Title                            : f-hangover2.720 - [2] English


Screenshots:
[IMG]http://shayr.gs/9P0SOD.png[/IMG]
[IMG]http://shayr.gs/X8QQTI.png[/IMG]
[IMG]http://shayr.gs/EDS2KV.png[/IMG]
[IMG]http://shayr.gs/RE48DO.png[/IMG]
[IMG]http://shayr.gs/00OL6M.png[/IMG]

Note: did my thing

Source:  720p Felony

Enjoy!

Respects to CM8, Rx, THC, ELEKTRI4KA, PA, YeFsTe, Box, MrRep and everyone in the struggle...